<?xml version='1.0' encoding='utf-8'?>
<svg xmlns="http://www.w3.org/2000/svg" enable-background="new 0 0 3695.76 2784.24" version="1.1" viewBox="0 0 3695.8 2784.2"> <style type="text/css">.st0{opacity:0.7;fill:#F4F4F4;} .st1{fill:#F2B56A;} .st2{fill:#E6932B;} .st3{fill:#E89328;} .st4{fill:#B67F56;} .st5{fill:#5C3416;} .st6{fill:#E9A85C;} .st7{fill:#522F0E;} .st8{fill:#CF8D42;} .st9{fill:#DA964A;} .st10{fill:#FFFFFD;} .st11{fill:#A06943;} .st12{fill:#9F6A46;} .st13{fill:#A16B48;} .st14{fill:#9E6743;} .st15{fill:#A26B46;} .st16{fill:#9F6744;} .st17{fill:#A16A46;} .st18{fill:#9E6946;} .st19{fill:#9F6946;} .st20{fill:#9F6845;} .st21{fill:#DD9D51;} .st22{fill:#E9A95D;} .st23{fill:#DD994F;} .st24{fill:#87522E;} .st25{fill:#ECAC61;} .st26{fill:#C07D3F;} .st27{fill:#EFB065;} .st28{fill:#D08E4A;} .st29{fill:#E5A255;} .st30{fill:#D08C47;} .st31{fill:#D5914A;} .st32{fill:#F3CD9F;} .st33{fill:#BC7E3F;} .st34{fill:#5C3B25;} .st35{fill:#D6914F;} .st36{fill:#E3A155;} .st37{fill:#D79347;} .st38{fill:#E29D51;} .st39{fill:#C78F62;}</style> <switch> <g> <ellipse class="st0" cx="1813" cy="2540.1" rx="1425.6" ry="41.38"/> <path class="st1" d="m3332.5 445.3c-9.65-18.35-22.92-35.09-40-47.02-30.84-21.01-68.21-28.47-104.42-34.28-43.32-6.13-86.94-10.32-130.58-13.18-8.79-0.66-17.31-3.21-24.94-7.54-25.38-13.87-50.98-28.01-78.96-35.9-43.99-12.49-90.78-14.19-135.87-7.63-5.38 0.74-42.19 13.72-47.65 15.65l-0.7 0.25c-1.16 0.66-3.47 1.97-4.62 2.63-13.55 7.37-25.84 16.71-37.98 26.13-7.25 11.53-16.36 21.82-22.66 33.93-15.38 28.67-25.87 59.68-35.87 90.55-33.79 103.7-51.36 211.62-76.79 317.46-13.29 53.09-28.67 107.28-60.84 152.4-22.72 31.13-55.38 57.31-94.22 63.73-46.76 7.8-94.28-5.14-136.56-24.65-47.25-21.76-86.56-57.37-120-96.65-36.79-41.85-68.27-87.98-101.68-132.49-34.28-43.44-68.32-87.43-108.61-125.58-5.03 16.3-12.98 31.47-20.14 46.88-7.66 15.55-14.19 31.91-25.2 45.49-0.66 4.77-1.27 9.57-1.85 14.36-7.77 0.43-15.55 0.92-23.27 1.79 1.79 27.89 3.53 55.81 3.96 83.79 5.23 139.68 8.58 279.45 13.73 419.13l-1.85-0.14c-25.52 5.69-51.7 7.49-77.54 11.13-4.25 18.5-8.73 36.94-14.25 55.12-8.35 27.23-5.87 56.07-5.2 84.13 0.12 17.69 6.99 35.64 1.76 53.09 0.9-0.03 2.63-0.03 3.5-0.06 1.71 10.66 2.05 21.47 2.6 32.25 5.06 15.46 8.29 31.45 9.71 47.66 3.01 31.3 9.94 62.02 17.14 92.57 7.8 31.71 18.99 62.43 28.12 93.76 3.56 13.82 9.77 26.94 11.56 41.18 0.84-0.35 2.49-1.01 3.32-1.36 9.1 31.18 23.06 60.69 31.99 91.94 11.68 36.44 17.11 74.6 19.77 112.66 1.99 24.25 5.12 48.96 15.52 71.24 9.05 21.36 24.45 39.54 31.1 61.96 34.71 117.25 58.55 237.4 78.38 357.98 1.91 13.06 2.92 26.62-0.4 39.57 39.1 7.63 78.32 16.59 118.41 16.65 20.66-0.03 41.33-1.01 61.99 0-8.12-11.18-18.32-20.58-28.47-29.86-28.06-23.44-50.2-53.58-64.62-87.14-25.29-64.33-40.66-131.99-56.13-199.22-8.5-40.9-21.71-82.51-13.29-124.62-1.56 5-3.38 9.88-5.14 14.86-7.57-26.36-12.02-53.55-12.66-80.95-0.38-24.97-1.1-50.2-6.73-74.65-6.94-27.34-18.61-53.18-30.95-78.44-9.19-19.02-16.59-39.45-17.31-60.75-0.69-23.5-0.26-47.23 4.71-70.29 4.94-28.15 14.97-55 21.27-82.8 7.92-33.15 12.17-67.05 15.64-100.92 3.41-27.92 5.72-55.95 7.37-84.02 0.98-13.35-1.36-27.34 3.09-40.17 6.16-8.53 15.64-13.73 23.27-20.75 42.25-46.39 78.9-100.95 90.75-163.53 7.95-38.29-0.69-78.35-17.86-112.92-5.55-9.05-10.75-18.32-15.09-28.01 7.83 4.83 15.29 10.2 22.31 16.13 43.21 34.13 89.54 64.28 138.21 90.06 42.43 24.16 88.53 42.8 136.82 51.01 31.5 5.52 63.55 7.4 95.49 8.24 32.63-1.45 65.32-3.03 98.01-3.44h0.38c38.53-51.13 73.5-105 102.75-161.96 49.28-94.05 83.58-194.85 128.21-291.01 15.38-33.9 31.56-67.57 51.04-99.33 13.61-21.73 34.77-37.2 56.56-49.97-7.87-2.45-7.87-2.45 0 0 13.06-5.64 26.36-10.84 39.42-16.53 41.47-8.55 83.03-18.96 123.24-32.8 17.37-5.49 34.19-13.27 52.46-15.55-0.52-11.97-1.01-23.9-0.66-35.87 5.49 11.18 6.97 23.61 8.84 35.78 9.34 16.56 24.86 29.65 42.28 37.14 38.93 15.75 86.88-8.58 99.68-47.98-14.62 5.43-30.84 7.63-46.16 4.08-21.82-5-41.36-17.17-58.15-31.62-12.08-11.24-24.83-23.12-29.88-39.36 10.64 5.4 16.24 16.3 24.42 24.48 15.75 16.21 34.71 29.91 56.27 37.2 21.53 7.2 47.02 3.99 64.57-10.95 8.99-6.45 13.03-17.02 13.76-27.75-13.56-21.6-23.96-44.93-37.63-66.4zm-34.92-6.01c-13.15-3.76-26.71-5.58-39.97-8.64 0.06-1.79 0.2-5.43 0.26-7.23 25.58-1.91 53.7 5.06 70.84 25.29-10.75-1.88-20.66-6.59-31.13-9.42z"/> <path class="st2" d="m1659.7 289.49c-0.69-18.01 16.1-33.29 33.67-33.18 18.21-1.18 37.17 14.16 36.33 33.12 1.24 13.96-8.15 25.46-17.89 34.22 3.21 22.72 6.68 45.43 9.39 68.21 0.03 6.65-0.17 13.27-0.38 19.91-7.05 2.51-14.02 5.78-21.56 6.24-8.58 0.03-16.56-3.5-24.54-6.04-2.66-9.08-3.29-18.58-1.36-27.83 2.92-20 4.02-40.2 6.99-60.17-11.25-7.89-21.34-19.94-20.65-34.48z"/> <path class="st1" d="m859.56 724.46c13.35-10.4 25.03-22.86 39.19-32.2-1.79 18.06-2.17 36.24-2.86 54.36-1.36 23.15-4.28 46.13-6.85 69.16-7.49 62.43-14.74 124.91-21.16 187.46-8.47 81.65-20.14 163.06-23.79 245.14-1.24-0.32-3.76-0.95-5-1.27-1.39-3.24-2.77-6.42-4.16-9.62-4.19 2.2-8.38 4.36-12.57 6.56-11.79-48.7-16.39-99.68-9.05-149.48 2.02-19.36 8.93-37.69 12.54-56.73-25.32 49.42-32.46 107.23-24.91 161.91 3.32 26.39 13.84 50.87 22.2 75.9 7.69 24.16 15.49 48.67 16.76 74.22 3.35 56.97-13.5 113.21-37.77 164.19-20.64 44.77-51.07 83.87-75.9 126.27-36.68 61.1-69.94 125.12-89.57 193.9-11.97 35.72-25.09 71.04-37.14 106.76-6.56 19.71-14.39 39.13-18.03 59.68-17.34 56.18-15.49 116.01-8.61 173.76 6.62 61.73 19.39 122.63 34.65 182.77 6.01 22.05 11.94 44.62 23.61 64.51 12.66 13.29 28.99 22.4 41.47 35.9 19.02 19.68 41.97 39.65 46.24 68.24-18.9-10.95-21.33-37.34-41.62-46.56-17.98-6.45-37.49-5.9-56.3-7.2-30.03-0.81-59.39-9.02-89.54-7.98-2.05 2.4-4.13 4.83-6.18 7.28 4.86-15.23 0.26-30.78-0.95-46.1-15.12-155.49-22.83-312.66-60.29-464.94-4.86-19.54-12.4-38.32-16.39-58.09-3.73-17.11 8.09-31.79 14.57-46.62 23.29-51.97 43.93-105.29 59.22-160.2 19.25-63.61 34.36-128.64 42.69-194.65 2.14-39.57 4.71-79.28 1.42-118.87-1.33-83.09-19.34-165.66-10.84-248.9 4.16-20.75 5.87-41.97 11.99-62.31 8.09-30.43 20.98-59.68 38.93-85.61 14.51-20 32.05-37.54 47.37-56.91 10.69-13.67 23.35-25.81 32.25-40.81-12.83 11.62-23.21 25.61-34.28 38.84-18.47 23.87-41.44 44.28-56.73 70.58-24.22 42.6-42.14 90.32-43.67 139.71-5.17 11.24-12.75 21.3-18.03 32.51-21.53 39.31-29.22 84.77-28.58 129.16-1.01 34.05 4.8 67.75 10.38 101.18 4.71 29.13 6.68 59.31-0.49 88.21-5.72 8.21-13.76 14.39-22.69 18.73-1.97-41.3-11.99-81.5-21.24-121.62-8.84-37.83-11.76-76.94-8.82-115.66 11.16-108.55 55.92-213.29 126.33-296.62 25.92-30.78 54.36-59.45 84.71-85.87 14.28-12.72 31.33-22.05 44.36-36.21 46.97-42.8 94.89-84.53 143.13-125.86z"/> <path class="st3" d="m1115.3 367.5c3.96-16.76 24.1-26.04 39.74-19.6 13.64 4.42 22.75 20.46 17.75 34.28-1.88 7.77-8.84 12.66-12.25 19.62 1.21 13.76 3.03 27.46 4.88 41.16 1.33 13.09 0.95 26.27 0.92 39.42-12.28 8.5-30.9 7.83-39.77-5.23-0.87-10.49 1.73-20.92 1.47-31.44-0.55-14.77 2.02-29.34 3.73-43.96-11.7-6.68-21.18-20.41-16.47-34.25z"/> <path class="st4" d="m1604.9 423.65c22.14-14.22 43.79-29.77 68.41-39.51-1.94 9.25-1.3 18.76 1.36 27.83 7.98 2.54 15.95 6.07 24.54 6.04 7.54-0.46 14.51-3.73 21.56-6.24 0.2-6.65 0.4-13.27 0.38-19.91 16.42 5.64 33.41 10.95 47.63 21.27 76.33 60.2 142.37 132.49 200.78 209.97-5.03 16.3-12.98 31.47-20.14 46.88-7.66 15.55-14.19 31.91-25.2 45.49-315.92-0.61-631.91 1.16-947.86-0.61-24.54-1.01-49.1-1.47-73.67-1.82-0.4 5.92-0.78 11.88-1.82 17.77-1.65 5.26-3.53 10.49-5 15.81 0.69-18.12 1.07-36.3 2.86-54.36 0.69-5.43 2.37-10.81 5.58-15.29 61.94-73.53 127.2-144.42 197.74-209.85 8.38-7.49 17.66-13.9 25.98-21.42 0.26 10.52-2.34 20.95-1.47 31.44 8.87 13.06 27.49 13.73 39.77 5.23 0.03-13.15 0.4-26.33-0.92-39.42 25.87 9.1 49.54 23.27 74.94 33.5 39.91 17.63 82.54 30.12 126.3 32.17 53.12 4.68 106.3-9.71 153.38-33.79 29.41-15.08 57.24-33.06 84.87-51.18z"/> <path class="st5" d="m3257.9 423.42c25.58-1.91 53.7 5.06 70.84 25.29-10.75-1.88-20.66-6.59-31.13-9.42-13.15-3.76-26.71-5.58-39.97-8.64 0.06-1.8 0.21-5.44 0.26-7.23z"/> <path class="st6" d="m2806 483.07c0.32-8.15 10.09-12.31 17.2-11.1 4.77 2.75 7.43 7.89 10.61 12.23 10.55 16.85 24.48 31.56 40.17 43.73 32.34 22.34 73.35 24.22 111.33 24.86 40 1.21 79.74-5.38 118.47-14.83 29.57-7.37 60.38-9.88 90.75-7.31-0.35 11.97 0.14 23.9 0.66 35.87-18.27 2.28-35.09 10.06-52.46 15.55-40.2 13.84-81.76 24.25-123.24 32.8-19.71-5.26-40.2-3.29-60.29-5.14-18.12-0.92-36.13-5.06-54.28-3.12-34.07-17.57-67.95-40.66-86.21-75.46-7.62-14.78-13.75-31.23-12.71-48.08z"/> <path class="st7" d="m3211.1 488.68c10.64 5.4 16.24 16.3 24.42 24.48 15.75 16.21 34.71 29.91 56.27 37.2 21.53 7.2 47.02 3.99 64.57-10.95 8.99-6.45 13.03-17.02 13.76-27.75 4.42 18.79-8.53 36.16-24.83 43.93-14.62 5.43-30.84 7.63-46.16 4.08-21.82-5-41.36-17.17-58.15-31.62-12.07-11.25-24.82-23.13-29.88-39.37z"/> <path class="st8" d="m3194.5 530.65c5.49 11.18 6.97 23.61 8.84 35.78-2.02 0.03-6.13 0.06-8.18 0.09-0.51-11.97-1-23.91-0.66-35.87z"/> <path class="st8" d="m650.92 926.22c11.07-13.24 21.45-27.23 34.28-38.84-8.9 15-21.56 27.14-32.25 40.81-15.32 19.36-32.86 36.91-47.37 56.91-17.95 25.92-30.84 55.17-38.93 85.61-6.13 20.35-7.83 41.56-11.99 62.31l-4.13 3.5c1.53-49.39 19.45-97.11 43.67-139.71 15.27-26.31 38.25-46.71 56.72-70.59z"/> <path class="st9" d="m2904.9 606.6c18.15-1.94 36.16 2.2 54.28 3.12 20.09 1.85 40.58-0.12 60.29 5.14-13.06 5.69-26.36 10.9-39.42 16.53-25.18-7.83-51.71-12.13-75.15-24.79z"/> <path class="st10" d="m902.71 713.04c24.57 0.35 49.13 0.81 73.67 1.82 315.95 1.76 631.93 0 947.86 0.61-0.66 4.77-1.27 9.57-1.85 14.36-7.77 0.43-15.55 0.92-23.27 1.79-8.32 0.98-16.68 1.21-25.03 1.27-0.17 7.83 0.12 15.92-2.8 23.38-7.69 19.28-18.79 37.05-31.16 53.64-14.05-14.57-25.12-31.85-33.24-50.35-3.82-8.24-3.15-17.51-3.41-26.36-6.99-0.12-13.99-0.2-20.98-0.26 0 9.48 0.38 19.51-4.31 28.12-8.61 17.25-18.44 34.16-31.42 48.55-17.34-21.94-36.99-47.02-34.31-76.68-6.88-0.09-13.76-0.17-20.64-0.29 0.14 8.7 0.32 17.75-3.67 25.72-8.79 18.35-19.42 35.92-32.51 51.56-17.54-22.08-39.19-46.59-36.01-76.88-7.49-0.06-14.97-0.09-22.43-0.09-0.29 8.67-0.06 17.77-4.13 25.72-8.99 18.27-20.06 35.52-32.83 51.39-18.15-21.79-38.24-46.99-36.65-77.02-7.14 0.03-14.25 0.09-21.36 0.14-0.12 8.84 0.43 18.21-3.99 26.24-9.1 18.01-19.22 35.75-32.77 50.81-17.23-22.25-37.77-47.05-34.8-77.14-7.31-0.09-14.62-0.17-21.91-0.17-0.29 7.72 0.17 15.84-3.24 23.01-8.5 19.28-19.57 37.43-33.01 53.64-18.18-21.36-36.33-46.99-34.45-76.44-7.05 0.03-14.05 0.09-21.04 0.2-0.38 8.58 0.14 17.63-3.93 25.49-8.73 18.32-19.19 36.04-32.6 51.36-17.66-21.97-38.53-46.85-34.48-77.08-8.03 0.03-16.04 0.12-24.08 0.35-0.35 7.8 0.35 16.13-3.35 23.32-9.25 18.73-19.36 37.4-33.58 52.89-17.14-22.08-35.75-46.97-34.54-76.39-7.49 0.06-14.94 0.14-22.4 0.29 0.09 7.77 0.84 15.9-2.46 23.21-8.35 19.36-19.97 37.25-33.7 53.24-13.38-15.46-25.12-32.69-32.57-51.82-3.24-8.03-2.72-16.85-2.54-25.32-8.9-0.03-17.8-0.03-26.68-0.06 1.04 11.07 0.58 22.66-5.61 32.34-8.61 15.72-17.31 31.94-30.46 44.39-13.99-15.87-26.36-33.9-33.09-54.1-2.77-7.25-2.23-15.06-1.39-22.6-19.57-0.9-39.13-1.62-58.7-2.05 1.07-5.87 1.45-11.82 1.85-17.75zm545.46 20.81c2.02 14.36 8.47 27.69 14.77 40.61h4.42c7.31-12.46 14.25-25.98 14.68-40.72-11.3 0.03-22.6 0.03-33.87 0.11zm190.4-0.37c1.71 15.87 8.32 30.92 16.73 44.36 8.24-13.61 15.84-28.35 17.14-44.48-11.29-0.23-22.59-0.2-33.87 0.12zm-663.29 0.26c4.25 15.4 9.57 30.87 18.76 44.08 8.24-13.53 15.92-28.27 16.56-44.42-11.76-0.27-23.56-0.15-35.32 0.34zm99.8-0.09c1.99 14.51 8.06 28.03 14.6 41.01 3.12-0.09 5.26-1.65 6.36-4.65 6.16-11.39 11.68-23.5 12.6-36.59-11.19 0-22.38 0-33.56 0.23zm92.6 0.06c3.21 14.05 8.73 27.46 14.51 40.61 1.16 0.06 3.5 0.14 4.65 0.2 8.03-12.23 14.02-26.21 15.49-40.87-11.56-0.29-23.12-0.35-34.65 0.06zm95.95 0.35c3.41 15.32 9.45 29.97 16.5 43.93 9.51-13.06 14.94-28.5 18.58-44.1-11.7-0.41-23.4-0.47-35.08 0.17zm92.11-0.15c2.25 14.77 9.13 28.15 14.19 42.08 1.3-0.95 3.9-2.8 5.2-3.73 7.37-11.85 12.46-25.12 15.43-38.7-11.61-0.37-23.23-0.4-34.82 0.35zm187.34 0.03c2.75 15.38 7.63 30.92 16.76 43.76 8.82-13.38 15.49-28.29 17.75-44.28-11.53-0.09-23 0.2-34.51 0.52zm186.36-0.26c4.42 15.2 9.13 30.66 17.83 44.05 8.73-13.44 15-28.44 17.31-44.36-11.73-0.27-23.43-0.12-35.14 0.31zm108.47 44.57c8.9-13.41 15.14-28.53 17.37-44.54-11.36-0.52-22.72-0.23-34.05-0.06 2.31 15.87 9.54 30.43 16.68 44.6z"/> <path class="st11" d="m895.89 746.63c1.47-5.32 3.35-10.55 5-15.81 19.57 0.43 39.13 1.16 58.7 2.05-0.84 7.54-1.39 15.35 1.39 22.6 6.73 20.2 19.1 38.24 33.09 54.1 13.15-12.46 21.85-28.67 30.46-44.39 6.18-9.68 6.65-21.27 5.61-32.34 8.87 0.03 17.77 0.03 26.68 0.06-0.17 8.47-0.69 17.28 2.54 25.32 7.46 19.13 19.19 36.36 32.57 51.82 13.73-15.98 25.35-33.87 33.7-53.24 3.29-7.31 2.54-15.43 2.46-23.21 7.46-0.14 14.91-0.23 22.4-0.29-1.21 29.42 17.4 54.31 34.54 76.39 14.22-15.49 24.34-34.16 33.58-52.89 3.7-7.2 3.01-15.52 3.35-23.32 8.03-0.23 16.04-0.32 24.08-0.35-4.05 30.23 16.82 55.12 34.48 77.08 13.41-15.32 23.87-33.03 32.6-51.36 4.08-7.86 3.55-16.91 3.93-25.49 6.99-0.12 13.99-0.17 21.04-0.2-1.88 29.45 16.27 55.09 34.45 76.44 13.44-16.21 24.51-34.36 33.01-53.64 3.41-7.17 2.95-15.29 3.24-23.01 7.28 0 14.6 0.09 21.91 0.17-2.98 30.09 17.57 54.88 34.8 77.14 13.55-15.06 23.67-32.8 32.77-50.81 4.42-8.03 3.87-17.4 3.99-26.24 7.11-0.06 14.22-0.12 21.36-0.14-1.59 30.03 18.5 55.23 36.65 77.02 12.77-15.87 23.84-33.12 32.83-51.39 4.08-7.95 3.84-17.05 4.13-25.72 7.46 0 14.94 0.03 22.43 0.09-3.18 30.29 18.47 54.8 36.01 76.88 13.09-15.64 23.73-33.21 32.51-51.56 3.99-7.98 3.82-17.02 3.67-25.72 6.88 0.12 13.76 0.2 20.64 0.29-2.69 29.65 16.97 54.74 34.31 76.68 12.98-14.39 22.8-31.3 31.42-48.55 4.68-8.61 4.31-18.64 4.31-28.12 6.99 0.06 13.99 0.14 20.98 0.26 0.26 8.84-0.4 18.12 3.41 26.36 8.12 18.5 19.19 35.78 33.24 50.35 12.37-16.59 23.47-34.36 31.16-53.64 2.92-7.46 2.63-15.55 2.8-23.38 8.35-0.06 16.71-0.29 25.03-1.27 1.79 27.89 3.53 55.81 3.96 83.79 5.23 139.68 8.58 279.45 13.73 419.13l-1.85-0.14c-21.79-4.71-43.73 0.92-65.43 2.86-40.72 5.35-81.65 8.84-122.4 13.84-85.17 8.93-170.72 13.96-256.21 18.76-80 0.69-160 5.66-239.97 1.68-76.24 0-152.34-5.2-228.35-10.49-37.51-3.06-75.09-5.4-112.46-9.65-8.21-1.01-16.47-0.32-24.65 0.32-7.23-0.61-14.39-1.59-21.39-3.32 3.64-82.08 15.32-163.5 23.79-245.14 6.42-62.54 13.67-125.03 21.16-187.46 2.53-23.07 5.45-46.05 6.81-69.2z"/> <path class="st12" d="m1448.2 733.85c11.27-0.09 22.57-0.09 33.87-0.12-0.43 14.74-7.37 28.27-14.68 40.72h-4.42c-6.3-12.91-12.75-26.23-14.77-40.6z"/> <path class="st13" d="m1638.6 733.48c11.27-0.32 22.57-0.35 33.87-0.12-1.3 16.13-8.9 30.87-17.14 44.48-8.4-13.44-15.02-28.5-16.73-44.36z"/> <path class="st14" d="m975.28 733.74c11.76-0.49 23.55-0.61 35.32-0.35-0.64 16.16-8.32 30.9-16.56 44.42-9.19-13.21-14.51-28.67-18.76-44.07z"/> <path class="st14" d="m1355.7 733.91c11.59-0.75 23.21-0.72 34.83-0.35-2.98 13.58-8.06 26.85-15.43 38.7-1.3 0.92-3.9 2.77-5.2 3.73-5.06-13.93-11.94-27.31-14.2-42.08z"/> <path class="st15" d="m1075.1 733.65c11.18-0.23 22.37-0.23 33.55-0.23-0.92 13.09-6.45 25.2-12.6 36.59-1.1 3.01-3.24 4.57-6.36 4.65-6.53-12.97-12.6-26.5-14.59-41.01z"/> <path class="st16" d="m1167.7 733.71c11.53-0.4 23.09-0.35 34.65-0.06-1.47 14.65-7.46 28.64-15.49 40.87-1.16-0.06-3.5-0.14-4.65-0.2-5.78-13.15-11.3-26.56-14.51-40.61z"/> <path class="st17" d="m1263.6 734.06c11.68-0.64 23.38-0.58 35.09-0.17-3.64 15.61-9.08 31.04-18.58 44.1-7.06-13.96-13.1-28.62-16.51-43.93z"/> <path class="st18" d="m1543.1 733.94c11.5-0.32 22.98-0.61 34.51-0.52-2.25 15.98-8.93 30.9-17.75 44.28-9.13-12.84-14.01-28.38-16.76-43.76z"/> <path class="st19" d="m1729.4 733.68c11.71-0.43 23.41-0.58 35.14-0.32-2.31 15.92-8.58 30.92-17.31 44.36-8.7-13.38-13.41-28.84-17.83-44.04z"/> <path class="st20" d="m1837.9 778.25c-7.14-14.16-14.36-28.73-16.68-44.6 11.33-0.17 22.69-0.46 34.05 0.06-2.23 16.01-8.47 31.13-17.37 44.54z"/> <path class="st21" d="m825.86 1037.8c-3.61 19.05-10.52 37.37-12.54 56.73-7.34 49.8-2.75 100.78 9.05 149.48 8.64 31.42 33.87 53.7 51.18 80.2-20.03-15.17-34.8-35.78-50.23-55.29-0.06 1.68-0.14 5-0.17 6.68-8.35-25.03-18.87-49.51-22.2-75.9-7.55-54.67-0.41-112.48 24.91-161.9z"/> <path class="st22" d="m2150.3 1071.7c7.83 4.83 15.29 10.2 22.31 16.13 43.21 34.13 89.54 64.28 138.21 90.06 42.43 24.16 88.53 42.8 136.82 51.01 31.5 5.52 63.55 7.4 95.49 8.24 32.63-1.45 65.32-3.03 98.01-3.44-30.58 39.05-72.08 67.57-115.52 90.58-92.95 49.48-198.58 70.92-303.18 74.42-44.1 3.35-88.29 0.52-132.37-1.21-4.88 36.99-7.08 74.33-8.29 111.62-4.39 72.34-9.71 144.62-12.28 217.08-2.37 28.76-1.47 57.69-1.1 86.5 2.4 23.87 1.5 48.21 7.43 71.62 5.2 19.68 19.31 35.69 23.44 55.75 9.36 38.44-3.84 77.05-9.31 115-1.56 5-3.38 9.88-5.14 14.86-7.57-26.36-12.02-53.55-12.66-80.95-0.38-24.97-1.1-50.2-6.73-74.65-6.94-27.34-18.61-53.18-30.95-78.44-9.19-19.02-16.59-39.45-17.31-60.75-0.69-23.5-0.26-47.23 4.71-70.29 4.94-28.15 14.97-55 21.27-82.8 7.92-33.15 12.17-67.05 15.64-100.92 3.41-27.92 5.72-55.95 7.37-84.02 0.98-13.35-1.36-27.34 3.09-40.17 6.16-8.53 15.64-13.73 23.27-20.75-1.97 4.31-3.64 8.73-5.29 13.21 15.52-10.43 26.82-25.64 39.83-38.81 32.14-39.02 63.15-82.37 71.88-133.27 6.99-38.61-6.3-77.54-24.88-110.98-1.59-3.64-5.29-5.14-8.64-6.59-5.59-9.08-10.79-18.35-15.12-28.04z"/> <path class="st23" d="m2165.4 1099.7c3.35 1.45 7.05 2.95 8.64 6.59 18.58 33.44 31.88 72.37 24.88 110.98-8.73 50.9-39.74 94.25-71.88 133.27-13.01 13.18-24.31 28.38-39.83 38.81 1.65-4.48 3.32-8.9 5.29-13.21 42.25-46.39 78.9-100.95 90.75-163.53 7.96-38.29-0.68-78.34-17.85-112.91z"/> <path class="st24" d="m1849.5 1237.3c21.71-1.94 43.64-7.57 65.43-2.86-25.52 5.69-51.7 7.49-77.54 11.13-139.77 18.01-280.46 29.19-421.36 32.17-183.81 4.83-368.12-2.66-550.58-25.98 8.18-0.64 16.45-1.33 24.65-0.32 37.37 4.25 74.94 6.59 112.46 9.65 76.01 5.29 152.11 10.49 228.35 10.49 79.97 3.99 159.97-0.98 239.97-1.68 85.49-4.8 171.04-9.83 256.21-18.76 40.76-4.99 81.68-8.49 122.41-13.84z"/> <path class="st25" d="m822.36 1244c4.19-2.2 8.38-4.36 12.57-6.56 1.39 3.21 2.77 6.39 4.16 9.62 1.24 0.32 3.76 0.95 5 1.27 6.99 1.73 14.16 2.72 21.39 3.32 182.46 23.32 366.76 30.81 550.58 25.98 140.9-2.98 281.59-14.16 421.36-32.17-4.25 18.5-8.73 36.94-14.25 55.12-8.35 27.23-5.87 56.07-5.2 84.13 0.12 17.69 6.99 35.64 1.76 53.09-13.24 2.54-25.58 8.12-38.32 12.31-51.76 17.08-104.1 32.49-157.28 44.51-102.28 22.54-208.21 30.84-312.43 18.32-129.51-13.61-256.07-56.97-365.49-127.75-25.84-18.29-52.25-36.47-72.66-61.01-17.31-26.48-42.55-48.76-51.19-80.18z"/> <path class="st26" d="m823.32 1269c15.43 19.51 30.2 40.12 50.23 55.29 20.4 24.54 46.82 42.72 72.66 61.01-17.2 69.97-42.75 137.66-74.48 202.31-23.24 10.46-39.45 31.27-54.94 50.72-28.87 35.75-49.34 77.28-77.28 113.7-18.06 23.03-36.68 45.9-58.27 65.78-11.94 11.42-28.53 15.4-44.57 16.45 19.62-68.79 52.89-132.8 89.57-193.9 24.83-42.4 55.26-81.5 75.9-126.27 24.28-50.98 41.13-107.23 37.77-164.19-1.27-25.55-9.08-50.06-16.76-74.22 0.02-1.68 0.11-5.01 0.17-6.68z"/> <path class="st27" d="m1825.8 1470.1c5.06 15.46 8.29 31.44 9.71 47.66 3.01 31.3 9.94 62.02 17.14 92.57 7.8 31.71 18.99 62.43 28.12 93.76-10.06 12.75-18.06 26.91-27.25 40.26-11.94 18.18-24.25 36.94-28.5 58.64-10.12 46.91 0.38 95.4-7.8 142.54-2.72 16.21-10.52 30.87-17.77 45.4-11.76 23.24-14.05 50.66-8.32 75.92-19.62 35.32-22.77 76.42-26.3 115.87-3.96 63.38-4.71 127.08 0.2 190.43 3.15 25.95 15.78 49.83 32.17 69.86 9.88 12.57 21.68 23.5 31.53 36.1 3.96 5.55 6.39 11.94 9.02 18.21-20.98-4.16-42.37-0.26-63.5-2.49-32.25-2.02-63.09-12.51-95-16.97-0.84-16.91-4.83-33.53-4.97-50.49-0.17-18.93-2.66-37.83-1.33-56.79 1.85-24.1 0.64-48.32 2.98-72.37 3.81-56.97 10.64-113.7 13.79-170.69 2.66-30.64 4.02-61.71-1.33-92.14-3.79-23.15-10.49-46.01-10.46-69.65 1.16-25.58 12.28-49.1 20.66-72.86 28.76-74.54 52.69-150.81 74.8-227.51 19.11-64.62 38.68-129.22 52.41-195.26z"/> <path class="st28" d="m491.09 1506.3c8.93-4.34 16.97-10.52 22.69-18.73-1.65 20.92-7.8 41.21-9.28 62.17-0.52 19.28 1.5 38.79-2.46 57.83-3.44 20.23-10.66 39.51-16.01 59.28-2.83 13.18-4.25 26.68-8.32 39.6 1.73-12.83 5.26-25.95 0.72-38.64-8.79-30.84-18.15-62.77-13.99-95.2 2.72-24.42 25.2-41.33 26.42-66.16l0.23-0.15z"/> <path class="st28" d="m816.79 1638.3c15.49-19.45 31.71-40.26 54.94-50.72-25.92 55.75-56.01 109.42-82.6 164.85-26.27 52.31-46.79 107.25-65.35 162.72-16.27 49.68-34.68 100.52-31.68 153.64 2.8 41.94 6.71 83.87 13.61 125.35 9.1 62.31 25.66 123.18 36.99 185.06 8.79 40.43 41.71 68.79 62.6 102.95 12.57 18.7 22.89 38.99 29.94 60.4-36.94 0.84-73.93 0.52-110.9 0.66-0.43 1.82-1.3 5.46-1.76 7.28-1.18-8.24-2.25-16.47-3.73-24.65-4.28-28.58-27.23-48.55-46.24-68.24-12.49-13.5-28.81-22.6-41.47-35.9 1.56-45.23-2.34-90.4-5.61-135.46-4.02-58.03-12.17-115.66-20.12-173.27-5.4-37.92-13.64-75.4-23.93-112.31 3.64-20.55 11.47-39.97 18.03-59.68 12.05-35.72 25.17-71.04 37.14-106.76 16.04-1.04 32.63-5.03 44.57-16.45 21.59-19.88 40.2-42.75 58.27-65.78 27.96-36.41 48.42-77.94 77.3-113.69z"/> <path class="st29" d="m1853.5 1744.3c9.19-13.35 17.2-27.51 27.25-40.26 3.55 13.81 9.77 26.94 11.56 41.18-14.05 38.18-29.86 75.75-42.34 114.51-13.55 42.05 4.88 87.86-12.28 129.19-9.08 29.42-28.99 53.27-46.59 77.89-5.72-25.26-3.44-52.69 8.32-75.92 7.25-14.54 15.06-29.19 17.77-45.4 8.18-47.14-2.31-95.64 7.8-142.54 4.27-21.71 16.58-40.47 28.51-58.65z"/> <path class="st28" d="m525.23 2471.4c2.05-2.46 4.13-4.88 6.18-7.28 30.14-1.04 59.51 7.17 89.54 7.98 18.82 1.3 38.32 0.75 56.3 7.2 20.29 9.22 22.72 35.61 41.62 46.56 1.47 8.18 2.54 16.42 3.73 24.65-34.8 1.42-69.62 0.49-104.45-0.14-27.46-1.99-55.14-1.71-82.28-6.97-7.54-2.2-19.13-3.55-19.45-13.61 1.09-19.69 4.7-39.14 8.81-58.39z"/> <path class="st30" d="m1679.3 2477.8c31.91 4.45 62.75 14.94 95 16.97 21.13 2.23 42.51-1.68 63.5 2.49 11.39 18.53 25.69 35.23 35.66 54.68 3.09 4.22-4.05 4.42-6.47 4.65-41.3 3.41-82.86 3.12-124.22 0.92-21.79-0.61-44.02-0.61-65.14-6.59-6.04-1.33-11.16-6.21-11.39-12.6-2.2-19.74 2.89-39.65 11.65-57.25l1.41-3.27z"/> <path class="st31" d="m2072 2479.2c39.1 7.63 78.32 16.59 118.41 16.65 20.66-0.03 41.33-1.01 61.99 0 15.55 19.16 29.36 39.94 38.87 62.8-30.69 2.28-61.44 1.73-92.17 1.85-37.72 0.12-75.55-1.04-112.95-6.07-7.83-1.33-18.15-3.27-20.75-12.02-2.98-19.68-0.64-39.97 5.38-58.84 0.32-1.1 0.93-3.27 1.22-4.37z"/> <path class="st32" d="m2943.6 354.92c24.02-8.64 50.9-5.92 74.45 2.92 11.39 5.81 24.94 12.28 29.57 25.12 0.09 7.49-2.25 14.8-4.13 21.97-0.92 0.23-2.75 0.64-3.67 0.84-17.98-10.43-39.22-16.1-59.94-11.99-16.04 3.15-32.37 5.29-48.73 3.73-5.75-3.67-17.28-7.63-13.38-16.36 4.04-12.01 13.86-21.98 25.83-26.23z"/> <path class="st32" d="m2977.3 400.33c1.1 0.17 3.29 0.46 4.39 0.61-2.14 3.24-4.42 6.45-6.42 9.74-0.87-1.45-2.6-4.31-3.47-5.75 1.8-1.54 3.53-3.1 5.5-4.6z"/> <path class="st33" d="m2931.2 397.5c16.36 1.56 32.69-0.58 48.73-3.73-4.02 1.45-7.95 3.15-11.79 4.86 2.31 0.43 6.91 1.3 9.22 1.71-1.97 1.5-3.7 3.06-5.49 4.6 0.87 1.45 2.6 4.31 3.47 5.75 1.42 12.95 10.75 22.66 22.02 28.24-1.82 1.3-5.46 3.93-7.28 5.23-15.78-6.59-25.43-21.21-30.46-36.99-12.49-0.43-25.43-2.11-35.69-9.83 1.81 0.04 5.45 0.1 7.27 0.16z"/> <path class="st34" d="m2979.9 393.77c20.72-4.1 41.97 1.56 59.94 11.99 4.48 2.34 8.12 5.87 11.85 9.31-4.71 0.92-9.54 0.64-13.55-2.17-3.32-1.73-6.56-3.55-9.77-5.35-1.24 8.82-1.85 19.13-9.6 25.03-5.69 5.58-13.96 6.16-21.45 6.33-11.27-5.58-20.61-15.29-22.02-28.24 1.99-3.29 4.28-6.5 6.42-9.74-1.1-0.14-3.29-0.43-4.39-0.61-2.31-0.4-6.91-1.27-9.22-1.71 3.84-1.69 7.77-3.4 11.79-4.84z"/> <path class="st35" d="m3028.4 407.55c3.21 1.79 6.45 3.61 9.77 5.35-2.86 9.42-4.65 20.35-13.01 26.68-10.03 7.28-23.5 8.15-35.09 4.57 1.82-1.3 5.46-3.93 7.28-5.23 7.49-0.17 15.75-0.75 21.45-6.33 7.75-5.9 8.35-16.22 9.6-25.04z"/> <path class="st36" d="m2768.7 304.03c-2.8-10.17-1.07-21.73 7.8-28.35 16.68 1.53 29.8 12.89 41.27 24.08 17.02 17.28 27.34 40.81 29.02 65 1.47 19.74 1.16 40.78-7.89 58.87-4.6 9.16-15.81 17.17-26.18 12.6-11.68-5-16.33-17.98-20.23-29.08-5.69-18.38-11.33-36.76-17.02-55.14-5.07-15.52-4.06-32.06-6.77-47.98zm17.83 2.83c-2.31 21.99 4.57 43.5 9.71 64.62 5.32 17.46 10.61 35.26 20.29 50.92 8.5-7.75 16.42-17.14 17.63-29.05 6.1-36.47-14.68-71.36-40.98-94.88-2.26 2.73-6.33 4.58-6.65 8.39z"/> <path class="st37" d="m2786.5 306.86c0.32-3.82 4.39-5.66 6.65-8.38 26.3 23.53 47.08 58.41 40.98 94.88-1.21 11.91-9.13 21.3-17.63 29.05-9.68-15.66-14.97-33.47-20.29-50.92-5.15-21.13-12.02-42.63-9.71-64.63z"/> <path class="st38" d="m2718.3 303.62c3.27-6.94 12.34-4.39 17.72-1.56 9.6 5.38 18.61 11.76 28.76 16.21-13.55 7.37-25.84 16.71-37.98 26.13-5.9-12.63-10.78-26.67-8.5-40.78z"/> <polygon class="st39" points="1953.3 643.09 1950.6 630.66 1932.6 646.38 1902 633.32 1879 649.2 1902 665.08 1932.6 652.02 1950.6 667.74 1953.3 655.31 1932.3 649.2"/> <polygon class="st39" points="1879 643.09 1876.3 630.66 1858.3 646.38 1827.6 633.32 1804.6 649.2 1827.6 665.08 1858.3 652.02 1876.3 667.74 1879 655.31 1858 649.2"/> <polygon class="st39" points="1804.6 643.09 1801.9 630.66 1783.9 646.38 1753.3 633.32 1730.3 649.2 1753.3 665.08 1783.9 652.02 1801.9 667.74 1804.6 655.31 1783.6 649.2"/> <polygon class="st39" points="1730.3 643.09 1727.6 630.66 1709.6 646.38 1678.9 633.32 1655.9 649.2 1678.9 665.08 1709.6 652.02 1727.6 667.74 1730.3 655.31 1709.3 649.2"/> <polygon class="st39" points="1655.9 643.09 1653.3 630.66 1635.2 646.38 1604.6 633.32 1581.6 649.2 1604.6 665.08 1635.2 652.02 1653.3 667.74 1655.9 655.31 1634.9 649.2"/> <polygon class="st39" points="1581.6 643.09 1578.9 630.66 1560.9 646.38 1530.2 633.32 1507.2 649.2 1530.2 665.08 1560.9 652.02 1578.9 667.74 1581.6 655.31 1560.6 649.2"/> <polygon class="st39" points="1507.2 643.09 1504.6 630.66 1486.6 646.38 1455.9 633.32 1432.9 649.2 1455.9 665.08 1486.6 652.02 1504.6 667.74 1507.2 655.31 1486.2 649.2"/> <polygon class="st39" points="1432.9 643.09 1430.2 630.66 1412.2 646.38 1381.6 633.32 1358.5 649.2 1381.6 665.08 1412.2 652.02 1430.2 667.74 1432.9 655.31 1411.9 649.2"/> <polygon class="st39" points="1358.5 643.09 1355.9 630.66 1337.9 646.38 1307.2 633.32 1284.2 649.2 1307.2 665.08 1337.9 652.02 1355.9 667.74 1358.5 655.31 1337.5 649.2"/> <polygon class="st39" points="1284.2 643.09 1281.5 630.66 1263.5 646.38 1232.9 633.32 1209.8 649.2 1232.9 665.08 1263.5 652.02 1281.5 667.74 1284.2 655.31 1263.2 649.2"/> <polygon class="st39" points="1209.8 643.09 1207.2 630.66 1189.2 646.38 1158.5 633.32 1135.5 649.2 1158.5 665.08 1189.2 652.02 1207.2 667.74 1209.8 655.31 1188.8 649.2"/> <polygon class="st39" points="1135.5 643.09 1132.8 630.66 1114.8 646.38 1084.2 633.32 1061.2 649.2 1084.2 665.08 1114.8 652.02 1132.8 667.74 1135.5 655.31 1114.5 649.2"/> <polygon class="st39" points="1061.2 643.09 1058.5 630.66 1040.5 646.38 1009.8 633.32 986.82 649.2 1009.8 665.08 1040.5 652.02 1058.5 667.74 1061.2 655.31 1040.2 649.2"/> <polygon class="st39" points="986.82 643.09 984.15 630.66 966.15 646.38 944.15 633.32 929.82 649.2 935.48 665.08 966.15 652.02 984.15 667.74 986.82 655.31 965.82 649.2"/> </g> </switch> </svg>